<svg xmlns="http://www.w3.org/2000/svg" viewBox="0 0 32 32">
  <path fill="#fff" d="M0 0h32v32H0z"/>
  <path data-name="favicon" d="M0 0v32h32V0H0Zm16.43 29.85c-.09.15-.26.25-.43.25s-.35-.1-.43-.25c-5.38-5.63-8.35.37-12.66-3.71 4.5 3.73 6.94-3.31 13.09 1.95 6.16-5.26 8.59 1.78 13.09-1.95-4.31 4.08-7.27-1.91-12.66 3.71ZM7.2 15.86v-.48c2.7 0 3.18-2.02 3.19-3.3 0-2.08-.36-3.59-1.59-3.59-1.01 0-1.77 1.42-1.77 3.71H3.79c0-2.88 2.4-4.01 4.85-4.01h.25c2.44 0 4.73 1.1 4.73 3.41 0 2.1-2.97 3.75-4.74 4 3.15.12 5.36 1.53 5.36 4.01s-1.56 4.18-5.35 4.18-5.5-2.09-5.5-4.61h3.24c0 2.77.73 4.29 2.26 4.29 1.53 0 2.12-1.25 2.12-3.71 0-2.04-1.27-3.93-3.81-3.93Zm6.49-7.31v-.13h7.63c3.93 0 7.28 3.17 7.28 7.59s-3.41 7.59-7.43 7.59h-7.48v-.13l1.99-.11V8.67l-1.99-.11ZM16 3.91C9.84 9.17 7.41 2.13 2.91 5.86c4.31-4.08 7.28 1.91 12.66-3.71.09-.15.26-.25.43-.25s.34.1.43.25c5.39 5.63 8.35-.37 12.66 3.71-4.5-3.73-6.94 3.31-13.09-1.95Zm9.07 12.1c0-6.03-1.16-7.37-3.75-7.37h-2.41v14.73h2.41c2.59 0 3.75-1.34 3.75-7.37Z" fill="#1b1a1d"/>
</svg>

